<svg width="40" height="40" viewBox="0 0 40 40" fill="none" xmlns="http://www.w3.org/2000/svg">
<circle cx="20" cy="20" r="20" fill="#FFD057"/>
<path d="M20.011 7.75C17.4592 7.75289 15.0127 8.76788 13.2083 10.5723C11.4039 12.3767 10.3889 14.8232 10.386 17.375C10.386 25.6109 19.136 31.8344 19.5079 32.0969C19.6569 32.1961 19.8319 32.249 20.011 32.249C20.19 32.249 20.3651 32.1961 20.5141 32.0969C20.886 31.8344 29.636 25.6109 29.636 17.375C29.6331 14.8232 28.6181 12.3767 26.8137 10.5723C25.0093 8.76788 22.5628 7.75289 20.011 7.75ZM20.011 13.875C20.7032 13.875 21.3799 14.0803 21.9555 14.4649C22.5311 14.8494 22.9797 15.3961 23.2446 16.0356C23.5095 16.6751 23.5788 17.3789 23.4437 18.0578C23.3087 18.7367 22.9753 19.3604 22.4859 19.8499C21.9964 20.3394 21.3727 20.6727 20.6938 20.8077C20.0149 20.9428 19.3111 20.8735 18.6716 20.6086C18.0321 20.3437 17.4854 19.8951 17.1008 19.3195C16.7163 18.7439 16.511 18.0672 16.511 17.375C16.511 16.4467 16.8797 15.5565 17.5361 14.9001C18.1925 14.2437 19.0827 13.875 20.011 13.875Z" fill="#16181B"/>
</svg>
