<svg width="55" height="55" viewBox="0 0 55 55" fill="none" xmlns="http://www.w3.org/2000/svg">
<g clip-path="url(#clip0_244_4119)">
<path d="M30.4434 27.8223H32.9141V23.9551H0.365234V29.3262H26.9371C27.8384 28.3712 29.0931 27.8223 30.4434 27.8223ZM24.8102 32.5488H7.99219V42.48C9.48213 42.9838 10.6627 44.1644 11.1665 45.6543H22.2202C22.4748 44.9023 22.9013 44.2288 23.4534 43.681L22.7144 42.9365C21.1277 41.3327 20.8538 38.8803 22.0462 36.9703L24.8102 32.5488ZM18.3047 40.3906C18.3047 41.2801 17.5828 42.002 16.6934 42.002C15.8039 42.002 15.082 41.2801 15.082 40.3906V37.8125C15.082 36.923 15.8039 36.2012 16.6934 36.2012C17.5828 36.2012 18.3047 36.923 18.3047 37.8125V40.3906ZM4.76953 9.45312C4.76953 8.56324 5.49098 7.8418 6.38086 7.8418C7.38783 7.8418 8.20703 7.0226 8.20703 6.01562C8.20703 5.12574 8.92848 4.4043 9.81836 4.4043H23.5684C24.4582 4.4043 25.1797 5.12574 25.1797 6.01562C25.1797 7.0226 25.9989 7.8418 27.0059 7.8418C27.8957 7.8418 28.6172 8.56324 28.6172 9.45312V20.7324H32.9141V4.83398C32.9141 2.16885 30.7452 0 28.0801 0H5.19922C2.53408 0 0.365234 2.16885 0.365234 4.83398V20.7324H4.76953V9.45312Z" fill="#FFD057"/>
<path d="M25.1797 47.2656C25.1797 48.1551 24.4578 48.877 23.5684 48.877H9.81836C8.92891 48.877 8.20703 48.1551 8.20703 47.2656C8.20703 46.2591 7.3874 45.4395 6.38086 45.4395C5.49141 45.4395 4.76953 44.7176 4.76953 43.8281V32.5488H0.365234V48.3398C0.365234 51.005 2.53408 53.1738 5.19922 53.1738H28.0801C29.4035 53.1738 30.6066 52.6378 31.48 51.7709L25.7232 45.969C25.551 46.1382 25.4142 46.3399 25.3208 46.5626C25.2275 46.7852 25.1795 47.0242 25.1797 47.2656ZM22.2202 7.62695H11.1665C10.6627 9.11689 9.48213 10.2975 7.99219 10.8013V20.7324H25.3945V10.8013C23.9046 10.2975 22.724 9.11689 22.2202 7.62695ZM18.3047 15.4688C18.3047 16.3582 17.5828 17.0801 16.6934 17.0801C15.8039 17.0801 15.082 16.3582 15.082 15.4688V12.8906C15.082 12.0012 15.8039 11.2793 16.6934 11.2793C17.5828 11.2793 18.3047 12.0012 18.3047 12.8906V15.4688ZM45.0527 21.377H46.0195V22.3438C46.0195 23.2336 46.741 23.9551 47.6309 23.9551C48.5207 23.9551 49.2422 23.2336 49.2422 22.3438V21.377H50.209C51.0989 21.377 51.8203 20.6555 51.8203 19.7656C51.8203 18.8757 51.0989 18.1543 50.209 18.1543H49.2422V17.1875C49.2422 16.2976 48.5207 15.5762 47.6309 15.5762C46.741 15.5762 46.0195 16.2976 46.0195 17.1875V18.1543H45.0527C44.1629 18.1543 43.4414 18.8757 43.4414 19.7656C43.4414 20.6555 44.1629 21.377 45.0527 21.377Z" fill="#FFD057"/>
<path d="M31.763 30.7227C30.5779 30.7227 29.4527 31.2258 28.6944 32.0915L25.0281 37.5029C24.6101 37.984 24.3825 38.5892 24.3848 39.2134C24.3871 39.8377 24.6192 40.4414 25.0408 40.9196L37.4122 53.6836C38.3361 54.7227 40.0819 54.7227 41.0058 53.6836L53.3759 40.9196C53.7978 40.4416 54.0304 39.8381 54.0332 39.2139C54.036 38.5897 53.8088 37.9843 53.3911 37.5029L49.7248 32.0915C49.3498 31.6633 48.8804 31.3187 48.3499 31.0821C47.8194 30.8456 47.2408 30.7229 46.6549 30.7227H31.763ZM31.7235 33.1476H34.9489C35.242 33.1476 35.4332 33.441 35.3006 33.6896L33.3228 37.4556C33.2371 37.6185 33.1054 37.7556 32.9425 37.8513C32.7795 37.947 32.5917 37.9977 32.4002 37.9975H27.4749C27.4181 37.9976 27.3625 37.9823 27.3146 37.9534C27.2667 37.9245 27.2284 37.8831 27.2044 37.8342C27.1803 37.7854 27.1714 37.7309 27.1786 37.6774C27.1859 37.6239 27.2091 37.5734 27.2455 37.532L30.6786 33.6132C30.936 33.3186 31.3196 33.1476 31.7235 33.1476ZM43.6411 33.1476H46.8665C47.2704 33.1476 47.6527 33.3174 47.9114 33.6132L51.3445 37.532C51.3809 37.5734 51.4041 37.6239 51.4114 37.6774C51.4186 37.7309 51.4097 37.7854 51.3856 37.8342C51.3615 37.8831 51.3233 37.9245 51.2754 37.9534C51.2275 37.9823 51.1719 37.9976 51.1151 37.9975H46.1898C45.9983 37.9977 45.8105 37.947 45.6475 37.8513C45.4846 37.7556 45.3529 37.6185 45.2672 37.4556L43.2881 33.6896C43.2581 33.6324 43.244 33.5689 43.2471 33.5051C43.2501 33.4413 43.2703 33.3792 43.3057 33.3249C43.3411 33.2706 43.3905 33.2258 43.4492 33.1948C43.5079 33.1637 43.5739 33.1475 43.6411 33.1476ZM42.2776 41.0069L39.3785 49.8618C39.3682 49.8971 39.3461 49.9282 39.3155 49.9504C39.2848 49.9725 39.2474 49.9845 39.209 49.9845C39.1705 49.9845 39.1331 49.9725 39.1025 49.9504C39.0719 49.9282 39.0497 49.8971 39.0395 49.8618L36.1378 41.0069C36.1177 40.9384 36.1146 40.8663 36.1287 40.7965C36.1428 40.7266 36.1737 40.6608 36.219 40.6041C36.2643 40.5475 36.3228 40.5017 36.3898 40.4702C36.4569 40.4386 36.5307 40.4223 36.6055 40.4225H41.8099C41.8847 40.4223 41.9585 40.4386 42.0256 40.4702C42.0926 40.5017 42.1511 40.5475 42.1964 40.6041C42.2417 40.6608 42.2726 40.7266 42.2867 40.7965C42.3008 40.8663 42.2977 40.9384 42.2776 41.0069Z" fill="#FFD057"/>
</g>
<defs>
<clipPath id="clip0_244_4119">
<rect width="55" height="55" fill="white"/>
</clipPath>
</defs>
</svg>
