<svg width="55" height="55" viewBox="0 0 55 55" fill="none" xmlns="http://www.w3.org/2000/svg">
<g clip-path="url(#clip0_244_4131)">
<path d="M6.55273 33.9453V37.168C6.55273 38.0578 7.27418 38.7793 8.16406 38.7793H10.4489C10.8234 40.0964 11.3537 41.3662 12.0351 42.5747L10.4096 44.2002C9.78044 44.8294 9.78044 45.8496 10.4096 46.4788L14.9667 51.0358C15.5958 51.665 16.616 51.665 17.2452 51.0358L18.8707 49.4103C20.0792 50.0917 21.349 50.6219 22.6661 50.9965V53.2812C22.6661 54.2266 23.4396 55 24.3849 55H30.7228C31.6126 55 32.3341 54.2786 32.3341 53.3887V50.9964C33.6512 50.6219 34.921 50.0916 36.1295 49.4102L37.755 51.0357C38.3842 51.6649 39.4044 51.6649 40.0336 51.0357L44.5906 46.4787C45.2198 45.8495 45.2198 44.8293 44.5906 44.2001L42.9651 42.5746C43.6465 41.3661 44.1767 40.0963 44.5513 38.7792H46.8359C47.7258 38.7792 48.4473 38.0577 48.4473 37.1679V33.9452C48.4473 33.0553 47.7258 32.3339 46.8359 32.3339H38.643C38.7195 32.8659 38.7793 33.4015 38.7793 33.9452C38.7793 40.164 33.7188 45.2245 27.5 45.2245C21.2812 45.2245 16.2207 40.164 16.2207 33.9452C16.2207 33.4015 16.2805 32.8659 16.357 32.3339H8.16406C7.27418 32.334 6.55273 33.0554 6.55273 33.9453ZM6.55273 1.61133V6.55273H19.4434V1.61133C19.4434 0.721445 18.7219 0 17.832 0H8.16406C7.27418 0 6.55273 0.721445 6.55273 1.61133ZM32.334 17.832H37.168V21.0547H32.334V17.832ZM40.3906 17.832H45.2246V21.0547H40.3906V17.832Z" fill="#FFD057"/>
<path d="M54.1487 3.52042C53.6278 3.23876 52.9906 3.27024 52.4948 3.60067L45.2246 8.37654V4.9414C45.2246 4.34661 44.8973 3.80058 44.3733 3.52042C44.1163 3.38235 43.8266 3.31686 43.5352 3.331C43.2438 3.34514 42.9618 3.43836 42.7194 3.60067L35.5566 8.37654V4.9414C35.5566 4.34661 35.2293 3.80058 34.7053 3.52042C34.1829 3.23876 33.5456 3.27024 33.0515 3.60067L23.3834 10.046C23.1627 10.1932 22.9818 10.3925 22.8566 10.6264C22.7315 10.8603 22.666 11.1215 22.666 11.3867V22.666H19.4434V9.77538H6.55273V22.666H1.61133C0.721445 22.666 0 23.3875 0 24.2773V27.5C0 28.3899 0.721445 29.1113 1.61133 29.1113H53.3887C54.2786 29.1113 55 28.3899 55 27.5V4.9414C55 4.34661 54.6727 3.80058 54.1487 3.52042ZM48.4473 22.666C48.4473 23.5559 47.7258 24.2773 46.8359 24.2773H30.7227C29.8328 24.2773 29.1113 23.5559 29.1113 22.666V16.2207C29.1113 15.3308 29.8328 14.6094 30.7227 14.6094H46.8359C47.7258 14.6094 48.4473 15.3308 48.4473 16.2207V22.666Z" fill="#FFD057"/>
</g>
<defs>
<clipPath id="clip0_244_4131">
<rect width="55" height="55" fill="white"/>
</clipPath>
</defs>
</svg>
