<svg width="55" height="55" viewBox="0 0 55 55" fill="none" xmlns="http://www.w3.org/2000/svg">
<g clip-path="url(#clip0_244_4140)">
<path d="M3.31348 25.8687V27.4812C3.31358 27.8317 3.42781 28.1726 3.63889 28.4525C3.84998 28.7323 4.14644 28.9358 4.48346 29.0322C4.95267 29.166 16.1184 32.3185 27.4999 32.3185C38.8814 32.3185 50.0472 29.166 50.5164 29.0322C50.8534 28.9358 51.1499 28.7323 51.3609 28.4525C51.572 28.1726 51.6863 27.8317 51.6864 27.4812V25.8687C51.6864 24.9775 50.9652 24.2563 50.074 24.2563H4.92591C4.03466 24.2563 3.31348 24.9775 3.31348 25.8687ZM46.8491 38.7682C47.7403 38.7682 48.4615 38.047 48.4615 37.1557V32.8814C46.1718 33.4219 42.7255 34.1449 38.7088 34.7042C38.3029 40.5611 33.4582 45.2179 27.4999 45.2179C21.5417 45.2179 16.697 40.5611 16.2911 34.7042C12.2735 34.1448 8.82767 33.4215 6.53834 32.8812V37.1557C6.53834 38.047 7.25952 38.7682 8.15077 38.7682H10.4372C10.8119 40.0862 11.3426 41.3569 12.0245 42.5662L10.3978 44.1928C9.76803 44.8226 9.76803 45.8431 10.3978 46.4729L14.958 51.0331C15.5878 51.6629 16.6083 51.6629 17.2381 51.0331L18.8647 49.4064C20.074 50.0883 21.3447 50.6189 22.6627 50.9937V53.3876C22.6627 54.2789 23.3839 55.0001 24.2752 55.0001H30.7249C31.6161 55.0001 32.3373 54.2789 32.3373 53.3876V50.9937C33.6553 50.619 34.926 50.0883 36.1354 49.4064L37.762 51.0331C38.3918 51.6629 39.4122 51.6629 40.0421 51.0331L44.6022 46.4729C45.232 45.8431 45.232 44.8226 44.6022 44.1928L42.9756 42.5662C43.6574 41.3569 44.188 40.0862 44.5629 38.7682H46.8491ZM24.938 17.6633C24.1259 18.0308 23.1693 17.667 22.8059 16.8571L17.7724 5.58876C12.0175 8.61701 7.88461 14.3634 6.84932 21.0314H48.1505C47.1153 14.3634 42.9824 8.61691 37.2275 5.58876L32.1939 16.8571C31.8304 17.6676 30.8732 18.0304 30.0619 17.6633C29.2509 17.298 28.8888 16.3438 29.2557 15.5312L34.8273 3.06789C35.2279 2.17955 34.7669 1.09621 33.8265 0.841338C29.6832 -0.280519 25.3161 -0.280445 21.1729 0.841553C20.2324 1.09642 19.7714 2.17976 20.172 3.0681L25.7442 15.5312C26.1111 16.3438 25.7506 17.298 24.938 17.6633Z" fill="#FFD057"/>
</g>
<defs>
<clipPath id="clip0_244_4140">
<rect width="55" height="55" fill="white"/>
</clipPath>
</defs>
</svg>
